<svg width="10" height="17" viewBox="0 0 10 17" fill="#fcd200" xmlns="http://www.w3.org/2000/svg">
	<path d="M7.5 1.5C7.89782 1.5 8.27936 1.65804 8.56066 1.93934C8.84196 2.22064 9 2.60218 9 3V14C9 14.3978 8.84196 14.7794 8.56066 15.0607C8.27936 15.342 7.89782 15.5 7.5 15.5H2.5C2.10218 15.5 1.72064 15.342 1.43934 15.0607C1.15804 14.7794 1 14.3978 1 14V3C1 2.60218 1.15804 2.22064 1.43934 1.93934C1.72064 1.65804 2.10218 1.5 2.5 1.5H7.5ZM8 2H2C1.86739 2 1.74021 2.05268 1.64645 2.14645C1.55268 2.24021 1.5 2.36739 1.5 2.5V14.5C1.5 14.776 1.724 15 2 15H8C8.13261 15 8.25979 14.9473 8.35355 14.8536C8.44732 14.7598 8.5 14.6326 8.5 14.5V2.5C8.5 2.36739 8.44732 2.24021 8.35355 2.14645C8.25979 2.05268 8.13261 2 8 2ZM5.49867 12.5C5.63127 12.4998 5.75852 12.5523 5.85242 12.646C5.94631 12.7396 5.99916 12.8667 5.99933 12.9993C5.99951 13.1319 5.947 13.2592 5.85336 13.3531C5.75972 13.447 5.63261 13.4998 5.5 13.5L4.50067 13.5027C4.36806 13.5028 4.24081 13.4503 4.14692 13.3567C4.05303 13.263 4.00018 13.1359 4 13.0033C3.99982 12.8707 4.05233 12.7435 4.14598 12.6496C4.23962 12.5557 4.36673 12.5028 4.49933 12.5027L5.49867 12.5Z"></path>
	<path fill-rule="evenodd" clip-rule="evenodd" d="M7.5 0.5C8.88071 0.5 10 1.61929 10 3V14C10 15.3807 8.88071 16.5 7.5 16.5H2.5C1.11929 16.5 0 15.3807 0 14V3C0 1.61929 1.11929 0.5 2.5 0.5H7.5ZM8.5 2H1.5V15H8.5V2Z"></path>
</svg>